HIERARCHY
ROOT root
{
	OFFSET	0	13.1	24.9
	CHANNELS 6  Xposition Yposition Zposition Xrotation Yrotation Zrotation
	JOINT spine_1
	{
		OFFSET	0	9.99999	0
		CHANNELS 3  Xrotation Yrotation Zrotation
		JOINT spine_2
		{
			OFFSET	0	112	-10
			CHANNELS 3  Xrotation Yrotation Zrotation
			JOINT spine_3
			{
				OFFSET	0	206.5	19.3
				CHANNELS 3  Xrotation Yrotation Zrotation
				JOINT spine_4
				{
					OFFSET	0	110.4	14.6
					CHANNELS 3  Xrotation Yrotation Zrotation
					JOINT neck_1
					{
						OFFSET	0	71.8	-50.3
						CHANNELS 3  Xrotation Yrotation Zrotation
						JOINT neck_2
						{
							OFFSET	0	86.2	-25.8
							CHANNELS 3  Xrotation Yrotation Zrotation
							JOINT head_ee
							{
								OFFSET	0	179.8	-8.7
								CHANNELS 3  Xrotation Yrotation Zrotation
								End Site
								{
									OFFSET	1	0	0
								}
							}
						}
					}
					JOINT left_clavicle
					{
						OFFSET	-43.2	22.4	-70.8
						CHANNELS 3  Xrotation Yrotation Zrotation
						JOINT left_shoulder
						{
							OFFSET	-93.9	-5.79999	48.7
							CHANNELS 3  Xrotation Yrotation Zrotation
							JOINT left_elbow
							{
								OFFSET	-291.4	-30.8	15.2
								CHANNELS 3  Xrotation Yrotation Zrotation
								JOINT left_lowarm_twist
								{
									OFFSET	-110.7	-3.89999	13.6
									CHANNELS 3  Xrotation Yrotation Zrotation
									JOINT left_hand
									{
										OFFSET	-110.7	-3.89999	13.6
										CHANNELS 3  Xrotation Yrotation Zrotation
										JOINT left_ee
										{
											OFFSET	-80.8	-5.10001	12.1
											CHANNELS 3  Xrotation Yrotation Zrotation
											End Site
											{
												OFFSET	1	0	0
											}
										}
									}
								}
							}
						}
					}
					JOINT right_clavicle
					{
						OFFSET	43.2	22.4	-70.8
						CHANNELS 3  Xrotation Yrotation Zrotation
						JOINT right_shoulder
						{
							OFFSET	93.9	-5.79999	48.7
							CHANNELS 3  Xrotation Yrotation Zrotation
							JOINT right_elbow
							{
								OFFSET	291.4	-30.8	15.2
								CHANNELS 3  Xrotation Yrotation Zrotation
								JOINT right_lowarm_twist
								{
									OFFSET	110.7	-3.89999	13.6
									CHANNELS 3  Xrotation Yrotation Zrotation
									JOINT right_hand
									{
										OFFSET	110.7	-3.89999	13.6
										CHANNELS 3  Xrotation Yrotation Zrotation
										JOINT right_ee
										{
											OFFSET	80.8	-5.10001	12.1
											CHANNELS 3  Xrotation Yrotation Zrotation
											End Site
											{
												OFFSET	1	0	0
											}
										}
									}
								}
							}
						}
					}
				}
			}
		}
	}
	JOINT left_hip
	{
		OFFSET	-82.8	-127.5	0.300001
		CHANNELS 3  Xrotation Yrotation Zrotation
		JOINT left_knee
		{
			OFFSET	-28.2	-396.7	2.2
			CHANNELS 3  Xrotation Yrotation Zrotation
			JOINT left_ankle
			{
				OFFSET	-11.7	-411.3	35.4
				CHANNELS 3  Xrotation Yrotation Zrotation
				JOINT left_toes
				{
					OFFSET	0	-60	-88.6
					CHANNELS 3  Xrotation Yrotation Zrotation
					JOINT left_foot_ee
					{
						OFFSET	-22.5	-16.5	-42.2
						CHANNELS 3  Xrotation Yrotation Zrotation
						End Site
						{
							OFFSET	1	0	0
						}
					}
				}
			}
		}
	}
	JOINT right_hip
	{
		OFFSET	82.8	-127.5	0.300001
		CHANNELS 3  Xrotation Yrotation Zrotation
		JOINT right_knee
		{
			OFFSET	28.2	-396.7	2.2
			CHANNELS 3  Xrotation Yrotation Zrotation
			JOINT right_ankle
			{
				OFFSET	11.7	-411.3	35.4
				CHANNELS 3  Xrotation Yrotation Zrotation
				JOINT right_toes
				{
					OFFSET	0	-60	-88.6
					CHANNELS 3  Xrotation Yrotation Zrotation
					JOINT right_foot_ee
					{
						OFFSET	22.5	-16.5	-42.2
						CHANNELS 3  Xrotation Yrotation Zrotation
						End Site
						{
							OFFSET	1	0	0
						}
					}
				}
			}
		}
	}
}
MOTION
Frames: 12
Frame Time: 0.02
851.35594877 622.766 -1859.21278801 -2.21482383222 7.89291461326 -3.89569971853 5.29005 0.473303 3.75448 5.29786 0.233611 3.77695 5.30591 -0.217148 3.77793 5.2862 0.381797 3.76488 -16.9699 4.14638 -10.7626 -16.8607 14.0003 -8.60516 -0.0 0.0 -0.0 -3.54785 -1.14585 -7.10035 -12.3487 -26.8543 56.6672 1.06228 -27.7537 0.26244 30.8604 0.0389621 -3.89473 -3.04063 16.7489 -11.8573 -0.0 0.0 -0.0 6.41025 0.491854 -12.4205 -36.9886 34.5848 -72.5335 0.377164 10.5831 -0.0349325 48.2387 0.845624 5.92446 1.02724 -7.92799 -10.0063 0.0 0.0 0.0 16.9629 10.3727 0.565056 -22.2994 0.261241 3.39049 20.2671 21.9127 -2.85843 -1.81188 0.0 0.0 -0.0 0.0 -0.0 12.5722 12.2674 2.15739 -37.0172 0.287988 -5.57616 35.5595 -3.49088 4.45516 1.99496 -0.0 -0.0 0.0 0.0 0.0 
843.136650135 626.286 -1868.21244683 -2.2536369639 7.0170728722 -3.94213064463 5.30548 0.426145 3.75881 5.31332 0.186274 3.77827 5.31821 -0.263597 3.77367 5.2985 0.335257 3.76799 -17.2616 4.18404 -10.8955 -17.1547 14.0967 -8.68454 -0.0 0.0 -0.0 -3.54976 -2.27692 -7.30738 -12.4067 -26.8517 55.7769 1.05949 -27.6916 0.261141 30.8045 0.0407912 -3.88782 -2.91338 15.9131 -11.5153 -0.0 0.0 -0.0 6.65292 0.723796 -12.8998 -37.4657 34.3374 -71.6234 0.393312 11.0253 -0.0379595 48.3404 0.852581 5.93547 1.10104 -8.19105 -10.5927 0.0 0.0 0.0 15.961 12.0572 0.734544 -22.0382 0.265858 3.35067 21.1748 23.8666 -3.00374 -0.484748 0.0 0.0 -0.0 0.0 -0.0 15.4098 12.2205 0.843327 -34.1915 0.139166 -5.16838 35.039 -3.44112 4.40522 1.99352 -0.0 -0.0 0.0 0.0 0.0 
831.542498973 627.347 -1879.65876866 -2.63036064753 7.26392013055 -3.05730967546 5.43111 0.339677 3.36912 5.43742 0.124728 3.38389 5.43864 -0.270814 3.37535 5.42284 0.265346 3.37578 -16.7754 4.44682 -10.5496 -16.6894 14.4881 -8.31477 -0.0 0.0 -0.0 -3.7417 -3.13569 -7.84775 -12.8791 -26.6672 54.4223 1.03935 -27.2417 0.251852 30.6363 0.0462497 -3.86704 -2.8581 15.4699 -11.4061 -0.0 0.0 -0.0 6.45262 0.856339 -12.5003 -36.7192 34.5099 -72.5434 0.406365 11.3818 -0.0404957 48.2533 0.846624 5.92604 1.03489 -8.35789 -10.2203 0.0 0.0 0.0 15.3831 12.0544 0.0246148 -21.7492 0.270755 3.30659 21.6944 23.8407 -3.07016 0.164703 -0.0 -0.0 -0.0 0.0 -0.0 18.933 11.7882 -0.310124 -32.4022 0.0554153 -4.90663 34.1259 -3.64579 4.31546 1.90935 -0.0 -0.0 0.0 0.0 0.0 
821.622592666 623.895 -1886.58888163 -4.29396301374 7.74795465356 -1.83253223388 5.57807 0.319998 3.33264 5.58424 0.107406 3.34623 5.58426 -0.275159 3.33664 5.56882 0.254952 3.33824 -15.7052 4.91234 -8.51593 -15.6979 14.3644 -6.34607 -0.0 0.0 -0.0 -3.3385 -4.90945 -7.33702 -10.5401 -26.7626 52.6538 0.731924 -19.9293 0.128594 27.7602 0.130132 -3.50927 -2.795 15.0012 -11.2583 -0.0 0.0 -0.0 6.2107 1.6506 -12.0063 -34.9205 34.785 -74.051 0.456992 12.7558 -0.0510819 48.6186 0.871704 5.96552 0.445089 -8.2905 -6.33598 0.0 0.0 0.0 13.79 16.3405 -0.865217 -14.1434 0.319423 2.14148 27.7361 24.862 -3.83821 0.308874 -0.0 -0.0 -0.0 0.0 -0.0 22.2502 15.3941 -1.23635 -23.0102 -0.247758 -3.49873 26.1795 -0.977838 3.4825 2.71426 -0.0 -0.0 0.0 0.0 0.0 
822.487027614 623.895 -1887.51546928 -4.29153690365 7.50659742552 -1.85081097019 5.57807 0.319998 3.33264 5.58424 0.107406 3.34623 5.58426 -0.275159 3.33664 5.56882 0.254952 3.33824 -15.7052 4.91234 -8.51593 -15.6979 14.3644 -6.34607 -0.0 0.0 -0.0 -3.3385 -4.90945 -7.33702 -10.5401 -26.7626 52.6538 0.731924 -19.9293 0.128594 27.7602 0.130132 -3.50927 -2.795 15.0012 -11.2583 -0.0 0.0 -0.0 6.2107 1.6506 -12.0063 -34.9205 34.785 -74.051 0.456992 12.7558 -0.0510819 48.6186 0.871704 5.96552 0.445089 -8.2905 -6.33598 0.0 0.0 0.0 13.79 16.3405 -0.865217 -14.1434 0.319423 2.14148 27.7361 24.862 -3.83821 0.308874 -0.0 -0.0 -0.0 0.0 -0.0 22.2502 15.3941 -1.23635 -23.0102 -0.247758 -3.49873 26.1795 -0.977838 3.4825 2.71426 -0.0 -0.0 0.0 0.0 0.0 
811.114320676 619.607 -1897.25022576 -4.92284763329 9.83694360041 -1.14986723711 6.31507 0.263893 3.27397 6.32104 0.0551414 3.28412 6.31699 -0.278191 3.27279 6.30212 0.241892 3.27567 -16.509 4.0541 -10.2527 -16.4073 13.6106 -8.20655 -0.0 0.0 -0.0 -3.08594 -6.29888 -7.04883 -9.29155 -27.3988 53.1669 0.51024 -14.1851 0.0634867 25.7687 0.177637 -3.25932 -2.93585 14.0913 -12.6443 -0.0 0.0 -0.0 6.74782 1.16483 -13.0852 -34.3433 32.8524 -73.9394 0.438296 12.2501 -0.0470344 49.7893 0.953767 6.09093 0.849446 -7.05225 -8.49792 0.0 0.0 0.0 11.9505 14.2624 -0.0488895 -11.6261 0.301434 1.75569 30.1491 26.2242 -4.15563 -1.25246 0.0 0.0 -0.0 0.0 -0.0 22.2412 12.6096 -1.73144 -15.6882 -0.322064 -2.37848 20.5705 -1.60397 2.81392 1.25818 -0.0 -0.0 0.0 0.0 0.0 
790.934090664 626.605 -1924.42810164 -8.29403642412 15.7365463361 0.581953391736 7.46215 0.684182 3.4172 7.46852 0.465484 3.45375 7.48649 0.184706 3.48005 7.47034 0.731675 3.40736 -17.0309 1.74122 -11.805 -16.7498 9.96524 -10.4638 -0.0 0.0 -0.0 -2.24254 -3.31374 -4.86099 -7.05288 -30.1547 53.7505 0.718844 -19.6005 0.124171 19.2546 0.271908 -2.43302 -2.76845 7.33726 -15.1156 -0.0 0.0 -0.0 7.03347 1.58249 -13.6545 -33.8898 29.7179 -79.5361 0.4164 11.6553 -0.0424996 52.1277 1.12531 6.33637 0.830179 -4.93773 -7.54118 0.0 0.0 0.0 6.66156 12.0507 3.02396 5.01898 -0.238975 -0.732699 25.418 26.5255 -3.59275 -9.66723 0.0 0.0 -0.0 0.0 -0.0 18.4027 14.3034 -0.459555 -4.6765 -0.164099 -0.698744 13.5204 3.32756 1.93248 0.337233 -0.0 -0.0 0.0 0.0 0.0 
791.646473103 626.605 -1925.16321577 -8.28723227501 15.5699045171 0.556735535561 7.46215 0.684182 3.4172 7.46852 0.465484 3.45375 7.48649 0.184706 3.48005 7.47034 0.731675 3.40736 -17.0309 1.74122 -11.805 -16.7498 9.96524 -10.4638 -0.0 0.0 -0.0 -2.24254 -3.31374 -4.86099 -7.05288 -30.1547 53.7505 0.718844 -19.6005 0.124171 19.2546 0.271908 -2.43302 -2.76845 7.33726 -15.1156 -0.0 0.0 -0.0 7.03347 1.58249 -13.6545 -33.8898 29.7179 -79.5361 0.4164 11.6553 -0.0424996 52.1277 1.12531 6.33637 0.830179 -4.93773 -7.54118 0.0 0.0 0.0 6.66156 12.0507 3.02396 5.01898 -0.238975 -0.732699 25.418 26.5255 -3.59275 -9.66723 0.0 0.0 -0.0 0.0 -0.0 18.4027 14.3034 -0.459555 -4.6765 -0.164099 -0.698744 13.5204 3.32756 1.93248 0.337233 -0.0 -0.0 0.0 0.0 0.0 
792.182374528 626.605 -1925.71337877 -8.28218084398 15.4448750409 0.537841992266 7.46215 0.684182 3.4172 7.46852 0.465484 3.45375 7.48649 0.184706 3.48005 7.47034 0.731675 3.40736 -17.0309 1.74122 -11.805 -16.7498 9.96524 -10.4638 -0.0 0.0 -0.0 -2.24254 -3.31374 -4.86099 -7.05288 -30.1547 53.7505 0.718844 -19.6005 0.124171 19.2546 0.271908 -2.43302 -2.76845 7.33726 -15.1156 -0.0 0.0 -0.0 7.03347 1.58249 -13.6545 -33.8898 29.7179 -79.5361 0.4164 11.6553 -0.0424996 52.1277 1.12531 6.33637 0.830179 -4.93773 -7.54118 0.0 0.0 0.0 6.66156 12.0507 3.02396 5.01898 -0.238975 -0.732699 25.418 26.5255 -3.59275 -9.66723 0.0 0.0 -0.0 0.0 -0.0 18.4027 14.3034 -0.459555 -4.6765 -0.164099 -0.698744 13.5204 3.32756 1.93248 0.337233 -0.0 -0.0 0.0 0.0 0.0 
794.283197908 626.605 -1927.84693235 -8.26292320439 14.9574177328 0.464398668071 7.46215 0.684182 3.4172 7.46852 0.465484 3.45375 7.48649 0.184706 3.48005 7.47034 0.731675 3.40736 -17.0309 1.74122 -11.805 -16.7498 9.96524 -10.4638 -0.0 0.0 -0.0 -2.24254 -3.31374 -4.86099 -7.05288 -30.1547 53.7505 0.718844 -19.6005 0.124171 19.2546 0.271908 -2.43302 -2.76845 7.33726 -15.1156 -0.0 0.0 -0.0 7.03347 1.58249 -13.6545 -33.8898 29.7179 -79.5361 0.4164 11.6553 -0.0424996 52.1277 1.12531 6.33637 0.830179 -4.93773 -7.54118 0.0 0.0 0.0 6.66156 12.0507 3.02396 5.01898 -0.238975 -0.732699 25.418 26.5255 -3.59275 -9.66723 0.0 0.0 -0.0 0.0 -0.0 18.4027 14.3034 -0.459555 -4.6765 -0.164099 -0.698744 13.5204 3.32756 1.93248 0.337233 -0.0 -0.0 0.0 0.0 0.0 
794.568243578 626.605 -1928.13360773 -8.26037603499 14.8916018561 0.454508522767 7.46215 0.684182 3.4172 7.46852 0.465484 3.45375 7.48649 0.184706 3.48005 7.47034 0.731675 3.40736 -17.0309 1.74122 -11.805 -16.7498 9.96524 -10.4638 -0.0 0.0 -0.0 -2.24254 -3.31374 -4.86099 -7.05288 -30.1547 53.7505 0.718844 -19.6005 0.124171 19.2546 0.271908 -2.43302 -2.76845 7.33726 -15.1156 -0.0 0.0 -0.0 7.03347 1.58249 -13.6545 -33.8898 29.7179 -79.5361 0.4164 11.6553 -0.0424996 52.1277 1.12531 6.33637 0.830179 -4.93773 -7.54118 0.0 0.0 0.0 6.66156 12.0507 3.02396 5.01898 -0.238975 -0.732699 25.418 26.5255 -3.59275 -9.66723 0.0 0.0 -0.0 0.0 -0.0 18.4027 14.3034 -0.459555 -4.6765 -0.164099 -0.698744 13.5204 3.32756 1.93248 0.337233 -0.0 -0.0 0.0 0.0 0.0 
798.441623838 626.605 -1931.96422544 -8.22726662478 14.0046668813 0.321811372712 7.46215 0.684182 3.4172 7.46852 0.465484 3.45375 7.48649 0.184706 3.48005 7.47034 0.731675 3.40736 -17.0309 1.74122 -11.805 -16.7498 9.96524 -10.4638 -0.0 0.0 -0.0 -2.24254 -3.31374 -4.86099 -7.05288 -30.1547 53.7505 0.718844 -19.6005 0.124171 19.2546 0.271908 -2.43302 -2.76845 7.33726 -15.1156 -0.0 0.0 -0.0 7.03347 1.58249 -13.6545 -33.8898 29.7179 -79.5361 0.4164 11.6553 -0.0424996 52.1277 1.12531 6.33637 0.830179 -4.93773 -7.54118 0.0 0.0 0.0 6.66156 12.0507 3.02396 5.01898 -0.238975 -0.732699 25.418 26.5255 -3.59275 -9.66723 0.0 0.0 -0.0 0.0 -0.0 18.4027 14.3034 -0.459555 -4.6765 -0.164099 -0.698744 13.5204 3.32756 1.93248 0.337233 -0.0 -0.0 0.0 0.0 0.0 
